<?xml version="1.0" standalone="no"?>
<!DOCTYPE svg PUBLIC "-//W3C//DTD SVG 20010904//EN"
 "http://www.w3.org/TR/2001/REC-SVG-20010904/DTD/svg10.dtd">
<svg version="1.0" xmlns="http://www.w3.org/2000/svg"
 width="1005.000000pt" height="108.000000pt" viewBox="0 0 1005.000000 108.000000"
 preserveAspectRatio="xMidYMid meet">
<metadata>
Created by potrace 1.16, written by Peter Selinger 2001-2019
</metadata>
<g transform="translate(0.000000,108.000000) scale(0.100000,-0.100000)"
fill="#000000" stroke="none">
<path d="M180 609 c0 -205 4 -358 10 -368 14 -28 65 -44 112 -37 52 8 57 12
52 34 -4 14 -14 16 -50 14 -77 -7 -74 -23 -74 364 l0 344 -25 0 -25 0 0 -351z"/>
<path d="M1040 585 l0 -375 25 0 c23 0 25 4 25 47 l0 47 33 -31 c101 -99 245
-95 341 7 49 52 61 76 77 152 21 96 -34 225 -118 278 -96 61 -202 47 -286 -37
l-47 -47 0 167 0 167 -25 0 -25 0 0 -375z m323 101 c77 -32 127 -115 127 -211
0 -74 -24 -129 -75 -173 -47 -42 -74 -52 -133 -52 -57 0 -117 27 -157 69 -29
31 -30 36 -33 139 l-4 107 36 46 c59 79 158 110 239 75z"/>
<path d="M1670 623 c0 -302 2 -342 18 -372 20 -42 56 -56 118 -46 37 5 44 10
44 28 0 20 -4 22 -45 19 -78 -7 -75 -23 -75 364 l0 344 -30 0 -30 0 0 -337z"/>
<path d="M3910 830 l0 -90 -35 0 c-28 0 -35 -4 -35 -20 0 -16 7 -20 35 -20
l35 0 0 -210 c0 -234 5 -257 60 -280 32 -13 86 -10 132 8 20 8 25 16 21 32 -4
15 -10 19 -22 14 -33 -15 -96 -15 -116 0 -19 13 -20 28 -23 225 l-3 211 65 0
c59 0 66 2 66 20 0 18 -7 20 -65 20 l-65 0 0 90 c0 89 0 90 -25 90 -25 0 -25
-1 -25 -90z"/>
<path d="M4850 830 l0 -90 -40 0 c-33 0 -40 -3 -40 -20 0 -17 7 -20 40 -20
l40 0 0 -219 c0 -215 1 -221 23 -246 16 -19 35 -28 68 -32 57 -6 122 18 117
44 -2 12 -11 17 -23 15 -79 -14 -97 -14 -115 3 -19 17 -20 33 -20 227 l0 208
60 0 c53 0 60 2 60 20 0 18 -7 20 -60 20 l-60 0 0 90 c0 89 0 90 -25 90 -25 0
-25 -1 -25 -90z"/>
<path d="M6930 830 l0 -90 -40 0 c-33 0 -40 -3 -40 -20 0 -17 7 -20 40 -20
l40 0 0 -223 0 -224 24 -22 c32 -30 99 -38 149 -18 39 17 42 23 28 46 -6 10
-13 11 -29 2 -32 -17 -87 -13 -105 7 -15 16 -17 47 -17 225 l0 207 60 0 c53 0
60 2 60 20 0 18 -7 20 -60 20 l-60 0 0 90 c0 89 0 90 -25 90 -25 0 -25 -1 -25
-90z"/>
<path d="M3269 812 c-275 -91 -356 -446 -150 -652 77 -77 135 -100 254 -100
103 0 167 17 167 44 0 12 -9 11 -57 -6 -115 -40 -257 -6 -343 83 -174 180
-124 483 99 588 75 35 201 37 273 4 66 -30 143 -105 175 -172 25 -51 28 -66
28 -166 0 -94 -3 -116 -22 -151 -35 -65 -116 -85 -127 -31 -3 12 -7 86 -9 163
-5 155 -17 200 -69 237 -41 31 -121 33 -190 7 -60 -22 -76 -36 -61 -51 5 -5
25 -1 48 11 44 22 129 27 168 9 32 -14 56 -57 64 -115 6 -46 6 -47 -18 -40
-50 15 -145 18 -188 6 -26 -7 -59 -26 -78 -45 -28 -28 -33 -40 -33 -81 0 -133
139 -187 270 -106 45 28 51 30 56 14 21 -66 43 -80 107 -68 37 7 65 33 93 86
27 52 32 211 9 282 -53 160 -173 255 -335 264 -55 3 -90 -1 -131 -14z m219
-373 c28 -9 32 -16 32 -45 0 -59 -23 -99 -72 -123 -122 -59 -243 8 -208 115
12 35 33 52 85 65 36 10 119 3 163 -12z"/>
<path d="M600 741 c-78 -25 -157 -99 -181 -167 -21 -60 -17 -161 8 -215 59
-130 201 -190 335 -139 35 13 69 35 87 56 59 67 27 90 -37 26 -46 -46 -111
-67 -176 -58 -81 12 -160 90 -173 171 l-6 35 238 0 237 0 -7 48 c-14 99 -70
183 -147 223 -42 22 -140 33 -178 20z m146 -51 c57 -22 114 -96 127 -167 l7
-33 -215 0 -215 0 6 28 c33 146 160 221 290 172z"/>
<path d="M2088 737 c-183 -60 -248 -298 -122 -446 55 -64 104 -86 194 -86 90
0 139 22 193 86 45 52 67 116 66 188 -1 67 -14 105 -55 163 -57 81 -185 125
-276 95z m181 -70 c22 -15 53 -48 68 -74 24 -40 28 -59 28 -118 -1 -135 -83
-225 -206 -225 -64 0 -110 22 -153 71 -73 86 -74 207 -2 302 61 80 180 100
265 44z"/>
<path d="M5285 740 c-40 -9 -95 -34 -120 -53 -15 -12 -17 -18 -7 -29 10 -13
20 -11 69 14 51 26 67 29 125 26 54 -3 72 -8 94 -28 35 -32 54 -79 54 -131 l0
-41 -42 9 c-24 4 -81 8 -128 8 -72 0 -92 -4 -129 -25 -86 -49 -111 -121 -69
-199 57 -107 210 -120 335 -31 l43 31 0 -28 c0 -35 16 -53 47 -53 27 0 33 34
8 44 -12 4 -15 33 -15 173 0 141 -3 174 -19 208 -41 90 -139 132 -246 105z
m165 -271 l50 -11 0 -57 c0 -69 -20 -100 -82 -132 -126 -64 -268 -7 -254 104
5 47 20 65 71 88 46 21 138 25 215 8z"/>
<path d="M5909 735 c-27 -9 -69 -35 -98 -61 l-51 -46 0 56 c0 53 -1 56 -25 56
l-25 0 0 -265 0 -265 25 0 25 0 0 168 c0 154 2 170 23 206 46 80 146 130 223
110 75 -19 94 -85 94 -331 l0 -153 26 0 26 0 -4 203 c-5 224 -15 269 -69 308
-37 26 -112 33 -170 14z"/>
<path d="M6442 731 c-187 -65 -236 -320 -90 -462 125 -121 337 -74 411 89 29
66 29 170 -2 234 -32 65 -97 123 -162 142 -67 20 -91 20 -157 -3z m166 -50
c80 -41 122 -113 122 -208 -1 -93 -57 -184 -133 -212 -51 -19 -126 -13 -172
13 -64 38 -98 97 -103 179 -7 108 34 184 123 230 42 22 118 21 163 -2z"/>
<path d="M7345 737 c-48 -16 -102 -44 -109 -56 -4 -5 -3 -16 0 -24 5 -13 15
-11 67 14 148 70 277 9 277 -129 l0 -43 -47 8 c-27 4 -84 8 -128 8 -67 0 -88
-4 -125 -25 -118 -66 -118 -205 -1 -267 75 -39 197 -22 265 37 42 37 46 37 46
2 0 -32 16 -52 42 -52 19 0 25 34 8 45 -6 4 -10 69 -10 163 0 86 -5 174 -10
194 -13 45 -52 93 -91 113 -41 22 -136 27 -184 12z m184 -269 l51 -11 0 -49
c0 -65 -21 -102 -75 -133 -90 -53 -203 -41 -245 27 -75 123 70 212 269 166z"/>
<path d="M8104 740 c-66 -21 -127 -72 -159 -134 -25 -51 -30 -70 -29 -130 1
-83 18 -128 70 -186 72 -80 174 -108 273 -75 56 18 136 85 129 107 -9 25 -38
19 -72 -15 -43 -44 -93 -61 -161 -55 -166 14 -249 224 -145 366 72 100 236
109 309 16 17 -22 24 -25 47 -17 l27 9 -33 38 c-18 20 -51 46 -73 58 -46 23
-137 32 -183 18z"/>
<path d="M8658 737 c-183 -60 -248 -298 -122 -446 55 -64 104 -86 194 -86 90
0 139 22 193 86 45 52 67 116 66 188 -1 67 -14 105 -55 163 -57 81 -185 125
-276 95z m181 -70 c22 -15 53 -48 68 -74 24 -40 28 -59 28 -118 -1 -135 -83
-225 -206 -225 -64 0 -110 22 -153 71 -73 86 -74 207 -2 302 61 80 180 100
265 44z"/>
<path d="M9300 737 c-19 -6 -59 -35 -87 -63 l-53 -53 0 60 c0 52 -2 59 -20 59
-19 0 -20 -7 -20 -265 l0 -265 25 0 25 0 0 173 c0 194 8 220 82 280 52 42 130
49 172 16 50 -39 56 -70 56 -279 l0 -190 30 0 30 0 0 175 c0 193 3 206 62 262
87 84 210 66 238 -35 5 -20 10 -119 10 -219 l0 -183 26 0 26 0 -4 208 c-3 190
-5 210 -25 248 -37 69 -102 96 -184 74 -55 -15 -93 -42 -129 -92 l-28 -39 -11
34 c-28 85 -123 125 -221 94z"/>
<path d="M2472 723 c49 -59 188 -243 188 -250 0 -4 -45 -64 -99 -133 -95 -120
-98 -125 -73 -128 30 -4 30 -4 138 136 l71 91 88 -115 c77 -100 92 -114 118
-114 22 0 27 3 20 12 -6 7 -51 65 -102 129 -50 64 -91 120 -91 123 0 4 33 48
73 99 40 50 86 109 101 130 l28 37 -29 0 c-25 0 -40 -15 -118 -115 -48 -64
-91 -112 -95 -108 -4 5 -44 56 -90 116 -73 94 -87 107 -113 107 -28 0 -29 -1
-15 -17z"/>
<path d="M4222 533 c3 -187 5 -212 24 -247 28 -54 63 -78 122 -84 75 -7 146
21 204 79 l48 48 0 -47 c0 -51 12 -72 42 -72 19 0 25 34 8 45 -6 4 -10 97 -10
246 l0 239 -25 0 -25 0 0 -174 0 -174 -32 -48 c-42 -61 -102 -94 -174 -94 -64
0 -108 31 -124 88 -5 20 -10 119 -10 220 l0 182 -26 0 -25 0 3 -207z"/>
</g>
</svg>
