<?xml version="1.0" standalone="no"?><svg xmlns="http://www.w3.org/2000/svg" viewBox="0 0 1440 320"><path fill="#ee6772" fill-opacity="1" d="M0,224L17.1,192C34.3,160,69,96,103,101.3C137.1,107,171,181,206,181.3C240,181,274,107,309,85.3C342.9,64,377,96,411,90.7C445.7,85,480,43,514,37.3C548.6,32,583,64,617,96C651.4,128,686,160,720,149.3C754.3,139,789,85,823,74.7C857.1,64,891,96,926,90.7C960,85,994,43,1029,37.3C1062.9,32,1097,64,1131,74.7C1165.7,85,1200,75,1234,85.3C1268.6,96,1303,128,1337,122.7C1371.4,117,1406,75,1423,53.3L1440,32L1440,0L1422.9,0C1405.7,0,1371,0,1337,0C1302.9,0,1269,0,1234,0C1200,0,1166,0,1131,0C1097.1,0,1063,0,1029,0C994.3,0,960,0,926,0C891.4,0,857,0,823,0C788.6,0,754,0,720,0C685.7,0,651,0,617,0C582.9,0,549,0,514,0C480,0,446,0,411,0C377.1,0,343,0,309,0C274.3,0,240,0,206,0C171.4,0,137,0,103,0C68.6,0,34,0,17,0L0,0Z"></path></svg>