<?xml version="1.0" standalone="no"?><svg xmlns="http://www.w3.org/2000/svg" viewBox="0 0 1440 320"><path fill="#ee6772" fill-opacity="1" d="M0,288L6.2,261.3C12.3,235,25,181,37,149.3C49.2,117,62,107,74,85.3C86.2,64,98,32,111,64C123.1,96,135,192,148,229.3C160,267,172,245,185,234.7C196.9,224,209,224,222,224C233.8,224,246,224,258,213.3C270.8,203,283,181,295,176C307.7,171,320,181,332,202.7C344.6,224,357,256,369,266.7C381.5,277,394,267,406,229.3C418.5,192,431,128,443,128C455.4,128,468,192,480,192C492.3,192,505,128,517,106.7C529.2,85,542,107,554,128C566.2,149,578,171,591,154.7C603.1,139,615,85,628,74.7C640,64,652,96,665,112C676.9,128,689,128,702,112C713.8,96,726,64,738,58.7C750.8,53,763,75,775,117.3C787.7,160,800,224,812,224C824.6,224,837,160,849,122.7C861.5,85,874,75,886,80C898.5,85,911,107,923,112C935.4,117,948,107,960,101.3C972.3,96,985,96,997,128C1009.2,160,1022,224,1034,229.3C1046.2,235,1058,181,1071,165.3C1083.1,149,1095,171,1108,197.3C1120,224,1132,256,1145,234.7C1156.9,213,1169,139,1182,112C1193.8,85,1206,107,1218,128C1230.8,149,1243,171,1255,186.7C1267.7,203,1280,213,1292,213.3C1304.6,213,1317,203,1329,197.3C1341.5,192,1354,192,1366,181.3C1378.5,171,1391,149,1403,128C1415.4,107,1428,85,1434,74.7L1440,64L1440,0L1433.8,0C1427.7,0,1415,0,1403,0C1390.8,0,1378,0,1366,0C1353.8,0,1342,0,1329,0C1316.9,0,1305,0,1292,0C1280,0,1268,0,1255,0C1243.1,0,1231,0,1218,0C1206.2,0,1194,0,1182,0C1169.2,0,1157,0,1145,0C1132.3,0,1120,0,1108,0C1095.4,0,1083,0,1071,0C1058.5,0,1046,0,1034,0C1021.5,0,1009,0,997,0C984.6,0,972,0,960,0C947.7,0,935,0,923,0C910.8,0,898,0,886,0C873.8,0,862,0,849,0C836.9,0,825,0,812,0C800,0,788,0,775,0C763.1,0,751,0,738,0C726.2,0,714,0,702,0C689.2,0,677,0,665,0C652.3,0,640,0,628,0C615.4,0,603,0,591,0C578.5,0,566,0,554,0C541.5,0,529,0,517,0C504.6,0,492,0,480,0C467.7,0,455,0,443,0C430.8,0,418,0,406,0C393.8,0,382,0,369,0C356.9,0,345,0,332,0C320,0,308,0,295,0C283.1,0,271,0,258,0C246.2,0,234,0,222,0C209.2,0,197,0,185,0C172.3,0,160,0,148,0C135.4,0,123,0,111,0C98.5,0,86,0,74,0C61.5,0,49,0,37,0C24.6,0,12,0,6,0L0,0Z"></path></svg>